<svg xmlns="http://www.w3.org/2000/svg" viewBox="0 0 24 24" fill="none">
  <path d="M12 15.2A3.2 3.2 0 1 0 12 8.8a3.2 3.2 0 0 0 0 6.4Z" stroke="#1ff7d1" stroke-width="2" stroke-linecap="round" stroke-linejoin="round"></path>
  <path d="M19.4 15a1.7 1.7 0 0 0 .34 1.87l.05.05a2.05 2.05 0 0 1-2.9 2.9l-.05-.05A1.7 1.7 0 0 0 15 19.4a1.7 1.7 0 0 0-1 .92l-.03.08A2.05 2.05 0 0 1 12.08 21h-.16a2.05 2.05 0 0 1-1.9-1.27l-.03-.08a1.7 1.7 0 0 0-1-.92 1.7 1.7 0 0 0-1.87.34l-.05.05a2.05 2.05 0 0 1-2.9-2.9l.05-.05A1.7 1.7 0 0 0 4.6 15a1.7 1.7 0 0 0-.92-1l-.08-.03A2.05 2.05 0 0 1 2.33 12.08v-.16a2.05 2.05 0 0 1 1.27-1.9l.08-.03a1.7 1.7 0 0 0 .92-1 1.7 1.7 0 0 0-.34-1.87l-.05-.05a2.05 2.05 0 0 1 2.9-2.9l.05.05A1.7 1.7 0 0 0 9 4.6a1.7 1.7 0 0 0 1-.92l.03-.08A2.05 2.05 0 0 1 11.92 2h.16a2.05 2.05 0 0 1 1.9 1.27l.03.08a1.7 1.7 0 0 0 1 .92 1.7 1.7 0 0 0 1.87-.34l.05-.05a2.05 2.05 0 0 1 2.9 2.9l-.05.05A1.7 1.7 0 0 0 19.4 9c.18.42.5.75.92 1l.08.03A2.05 2.05 0 0 1 21.67 11.92v.16a2.05 2.05 0 0 1-1.27 1.9l-.08.03a1.7 1.7 0 0 0-.92 1Z" stroke="#1ff7d1" stroke-width="2" stroke-linecap="round" stroke-linejoin="round"></path>
</svg>